<?xml version="1.0" encoding="us-ascii" standalone="no"?><svg xmlns="http://www.w3.org/2000/svg" xmlns:xlink="http://www.w3.org/1999/xlink" contentStyleType="text/css" height="393px" preserveAspectRatio="none" style="width:357px;height:393px;background:#FFFFFF;" version="1.1" viewBox="0 0 357 393" width="357px" zoomAndPan="magnify"><defs/><g><!--class Cuttable--><g id="elem_Cuttable"><rect codeLine="2" fill="#F1F1F1" height="48" id="Cuttable" rx="2.5" ry="2.5" style="stroke:#181818;stroke-width:0.5;" width="90" x="136.5" y="338"/><ellipse cx="151.5" cy="354" fill="#B4A7E5" rx="11" ry="11" style="stroke:#181818;stroke-width:1.0;"/><path d="M147.4219,349.7656 L147.4219,347.6094 L154.8125,347.6094 L154.8125,349.7656 L152.3438,349.7656 L152.3438,357.8438 L154.8125,357.8438 L154.8125,360 L147.4219,360 L147.4219,357.8438 L149.8906,357.8438 L149.8906,349.7656 L147.4219,349.7656 Z " fill="#000000"/><text fill="#000000" font-family="sans-serif" font-size="14" font-style="italic" lengthAdjust="spacing" textLength="58" x="165.5" y="358.8467">Cuttable</text><line style="stroke:#181818;stroke-width:0.5;" x1="137.5" x2="225.5" y1="370" y2="370"/><line style="stroke:#181818;stroke-width:0.5;" x1="137.5" x2="225.5" y1="378" y2="378"/></g><!--class CutPrint--><g id="elem_CutPrint"><rect codeLine="5" fill="#F1F1F1" height="129.4844" id="CutPrint" rx="2.5" ry="2.5" style="stroke:#181818;stroke-width:0.5;" width="124" x="119.5" y="132"/><ellipse cx="151.15" cy="148" fill="#A9DCDF" rx="11" ry="11" style="stroke:#181818;stroke-width:1.0;"/><path d="M151.2594,143.3438 L150.1031,148.4219 L152.4313,148.4219 L151.2594,143.3438 Z M149.775,141.1094 L152.7594,141.1094 L156.1188,153.5 L153.6656,153.5 L152.9,150.4375 L149.6188,150.4375 L148.8688,153.5 L146.4313,153.5 L149.775,141.1094 Z " fill="#000000"/><text fill="#000000" font-family="sans-serif" font-size="14" font-style="italic" lengthAdjust="spacing" textLength="55" x="168.85" y="152.8467">CutPrint</text><line style="stroke:#181818;stroke-width:0.5;" x1="120.5" x2="242.5" y1="164" y2="164"/><line style="stroke:#181818;stroke-width:0.5;" x1="120.5" x2="242.5" y1="172" y2="172"/><text fill="#000000" font-family="sans-serif" font-size="14" lengthAdjust="spacing" textLength="43" x="125.5" y="188.9951">draw()</text><text fill="#000000" font-family="sans-serif" font-size="14" lengthAdjust="spacing" textLength="32" x="125.5" y="205.292">cut()</text><text fill="#000000" font-family="sans-serif" font-size="14" lengthAdjust="spacing" textLength="41" x="125.5" y="221.5889">print()</text><text fill="#000000" font-family="sans-serif" font-size="14" lengthAdjust="spacing" textLength="112" x="125.5" y="237.8857">createCuttable()</text><text fill="#000000" font-family="sans-serif" font-size="14" lengthAdjust="spacing" textLength="109" x="125.5" y="254.1826">createCutPrint()</text></g><!--class Wood--><g id="elem_Wood"><rect fill="#F1F1F1" height="48" id="Wood" rx="2.5" ry="2.5" style="stroke:#181818;stroke-width:0.5;" width="72" x="278.5" y="172.5"/><ellipse cx="293.5" cy="188.5" fill="#ADD1B2" rx="11" ry="11" style="stroke:#181818;stroke-width:1.0;"/><path d="M296.4688,194.1406 Q295.8906,194.4375 295.25,194.5781 Q294.6094,194.7344 293.9063,194.7344 Q291.4063,194.7344 290.0781,193.0938 Q288.7656,191.4375 288.7656,188.3125 Q288.7656,185.1875 290.0781,183.5313 Q291.4063,181.875 293.9063,181.875 Q294.6094,181.875 295.25,182.0313 Q295.9063,182.1875 296.4688,182.4844 L296.4688,185.2031 Q295.8438,184.625 295.25,184.3594 Q294.6563,184.0781 294.0313,184.0781 Q292.6875,184.0781 292,185.1563 Q291.3125,186.2188 291.3125,188.3125 Q291.3125,190.4063 292,191.4844 Q292.6875,192.5469 294.0313,192.5469 Q294.6563,192.5469 295.25,192.2813 Q295.8438,192 296.4688,191.4219 L296.4688,194.1406 Z " fill="#000000"/><text fill="#000000" font-family="sans-serif" font-size="14" lengthAdjust="spacing" textLength="40" x="307.5" y="193.3467">Wood</text><line style="stroke:#181818;stroke-width:0.5;" x1="279.5" x2="349.5" y1="204.5" y2="204.5"/><line style="stroke:#181818;stroke-width:0.5;" x1="279.5" x2="349.5" y1="212.5" y2="212.5"/></g><!--class Potato--><g id="elem_Potato"><rect fill="#F1F1F1" height="48" id="Potato" rx="2.5" ry="2.5" style="stroke:#181818;stroke-width:0.5;" width="77" x="7" y="172.5"/><ellipse cx="22" cy="188.5" fill="#ADD1B2" rx="11" ry="11" style="stroke:#181818;stroke-width:1.0;"/><path d="M24.9688,194.1406 Q24.3906,194.4375 23.75,194.5781 Q23.1094,194.7344 22.4063,194.7344 Q19.9063,194.7344 18.5781,193.0938 Q17.2656,191.4375 17.2656,188.3125 Q17.2656,185.1875 18.5781,183.5313 Q19.9063,181.875 22.4063,181.875 Q23.1094,181.875 23.75,182.0313 Q24.4063,182.1875 24.9688,182.4844 L24.9688,185.2031 Q24.3438,184.625 23.75,184.3594 Q23.1563,184.0781 22.5313,184.0781 Q21.1875,184.0781 20.5,185.1563 Q19.8125,186.2188 19.8125,188.3125 Q19.8125,190.4063 20.5,191.4844 Q21.1875,192.5469 22.5313,192.5469 Q23.1563,192.5469 23.75,192.2813 Q24.3438,192 24.9688,191.4219 L24.9688,194.1406 Z " fill="#000000"/><text fill="#000000" font-family="sans-serif" font-size="14" lengthAdjust="spacing" textLength="45" x="36" y="193.3467">Potato</text><line style="stroke:#181818;stroke-width:0.5;" x1="8" x2="83" y1="204.5" y2="204.5"/><line style="stroke:#181818;stroke-width:0.5;" x1="8" x2="83" y1="212.5" y2="212.5"/></g><!--class AliceCutPrint--><g id="elem_AliceCutPrint"><rect fill="#F1F1F1" height="48" id="AliceCutPrint" rx="2.5" ry="2.5" style="stroke:#181818;stroke-width:0.5;" width="119" x="19" y="7"/><ellipse cx="34" cy="23" fill="#ADD1B2" rx="11" ry="11" style="stroke:#181818;stroke-width:1.0;"/><path d="M36.9688,28.6406 Q36.3906,28.9375 35.75,29.0781 Q35.1094,29.2344 34.4063,29.2344 Q31.9063,29.2344 30.5781,27.5938 Q29.2656,25.9375 29.2656,22.8125 Q29.2656,19.6875 30.5781,18.0313 Q31.9063,16.375 34.4063,16.375 Q35.1094,16.375 35.75,16.5313 Q36.4063,16.6875 36.9688,16.9844 L36.9688,19.7031 Q36.3438,19.125 35.75,18.8594 Q35.1563,18.5781 34.5313,18.5781 Q33.1875,18.5781 32.5,19.6563 Q31.8125,20.7188 31.8125,22.8125 Q31.8125,24.9063 32.5,25.9844 Q33.1875,27.0469 34.5313,27.0469 Q35.1563,27.0469 35.75,26.7813 Q36.3438,26.5 36.9688,25.9219 L36.9688,28.6406 Z " fill="#000000"/><text fill="#000000" font-family="sans-serif" font-size="14" lengthAdjust="spacing" textLength="87" x="48" y="27.8467">AliceCutPrint</text><line style="stroke:#181818;stroke-width:0.5;" x1="20" x2="137" y1="39" y2="39"/><line style="stroke:#181818;stroke-width:0.5;" x1="20" x2="137" y1="47" y2="47"/></g><!--class BobCutPrint--><g id="elem_BobCutPrint"><rect fill="#F1F1F1" height="48" id="BobCutPrint" rx="2.5" ry="2.5" style="stroke:#181818;stroke-width:0.5;" width="115" x="176" y="7"/><ellipse cx="191" cy="23" fill="#ADD1B2" rx="11" ry="11" style="stroke:#181818;stroke-width:1.0;"/><path d="M193.9688,28.6406 Q193.3906,28.9375 192.75,29.0781 Q192.1094,29.2344 191.4063,29.2344 Q188.9063,29.2344 187.5781,27.5938 Q186.2656,25.9375 186.2656,22.8125 Q186.2656,19.6875 187.5781,18.0313 Q188.9063,16.375 191.4063,16.375 Q192.1094,16.375 192.75,16.5313 Q193.4063,16.6875 193.9688,16.9844 L193.9688,19.7031 Q193.3438,19.125 192.75,18.8594 Q192.1563,18.5781 191.5313,18.5781 Q190.1875,18.5781 189.5,19.6563 Q188.8125,20.7188 188.8125,22.8125 Q188.8125,24.9063 189.5,25.9844 Q190.1875,27.0469 191.5313,27.0469 Q192.1563,27.0469 192.75,26.7813 Q193.3438,26.5 193.9688,25.9219 L193.9688,28.6406 Z " fill="#000000"/><text fill="#000000" font-family="sans-serif" font-size="14" lengthAdjust="spacing" textLength="83" x="205" y="27.8467">BobCutPrint</text><line style="stroke:#181818;stroke-width:0.5;" x1="177" x2="290" y1="39" y2="39"/><line style="stroke:#181818;stroke-width:0.5;" x1="177" x2="290" y1="47" y2="47"/></g><!--link Wood to Cuttable--><g id="link_Wood_Cuttable"><path codeLine="13" d="M298.67,220.58 C282.73,243.4 257.04,279 232.5,308 C223.92,318.14 226.4997,315.9352 217.6097,325.0052 " fill="none" id="Wood-to-Cuttable" style="stroke:#181818;stroke-width:1.0;stroke-dasharray:7.0,7.0;"/><polygon fill="none" points="205.01,337.86,221.8947,329.2051,213.3248,320.8053,205.01,337.86" style="stroke:#181818;stroke-width:1.0;"/></g><!--link Potato to Cuttable--><g id="link_Potato_Cuttable"><path codeLine="14" d="M64.7,220.58 C90.54,251.65 124.7572,292.7933 150.6672,323.9333 " fill="none" id="Potato-to-Cuttable" style="stroke:#181818;stroke-width:1.0;stroke-dasharray:7.0,7.0;"/><polygon fill="none" points="162.18,337.77,155.2794,320.0957,146.0549,327.7709,162.18,337.77" style="stroke:#181818;stroke-width:1.0;"/></g><!--link AliceCutPrint to CutPrint--><g id="link_AliceCutPrint_CutPrint"><path codeLine="16" d="M96.88,55.01 C103.92,64.16 111.84,74.89 118.5,85 C128.28,99.85 129.1703,100.6683 138.1003,116.2283 " fill="none" id="AliceCutPrint-to-CutPrint" style="stroke:#181818;stroke-width:1.0;"/><polygon fill="none" points="147.06,131.84,143.3042,113.2418,132.8964,119.2149,147.06,131.84" style="stroke:#181818;stroke-width:1.0;"/></g><!--link BobCutPrint to CutPrint--><g id="link_BobCutPrint_CutPrint"><path codeLine="17" d="M226.16,55.08 C219.8,75.06 215.7695,87.7779 207.1595,114.8279 " fill="none" id="BobCutPrint-to-CutPrint" style="stroke:#181818;stroke-width:1.0;"/><polygon fill="none" points="201.7,131.98,212.8769,116.6478,201.4421,113.0081,201.7,131.98" style="stroke:#181818;stroke-width:1.0;"/></g><!--link CutPrint to Cuttable--><g id="link_CutPrint_Cuttable"><path codeLine="19" d="M181.5,261.18 C181.5,288.08 181.5,311.73 181.5,331.67 " fill="none" id="CutPrint-to-Cuttable" style="stroke:#181818;stroke-width:1.0;"/><polygon fill="#181818" points="181.5,337.67,185.5,328.67,181.5,332.67,177.5,328.67,181.5,337.67" style="stroke:#181818;stroke-width:1.0;"/><text fill="#000000" font-family="sans-serif" font-size="13" lengthAdjust="spacing" textLength="41" x="182.5" y="304.0669">create</text></g><!--link AliceCutPrint to Potato--><g id="link_AliceCutPrint_Potato"><path codeLine="20" d="M73.84,55.08 C67.57,86.15 57.6561,135.2484 51.3761,166.3884 " fill="none" id="AliceCutPrint-to-Potato" style="stroke:#181818;stroke-width:1.0;"/><polygon fill="#181818" points="50.19,172.27,55.8903,164.2384,51.1784,167.3687,48.0482,162.6569,50.19,172.27" style="stroke:#181818;stroke-width:1.0;"/><text fill="#000000" font-family="sans-serif" font-size="13" lengthAdjust="spacing" textLength="41" x="68.5" y="98.0669">create</text></g><!--link BobCutPrint to Wood--><g id="link_BobCutPrint_Wood"><path codeLine="21" d="M244.93,55.08 C260.33,86.15 284.8961,135.7538 300.3261,166.8938 " fill="none" id="BobCutPrint-to-Wood" style="stroke:#181818;stroke-width:1.0;"/><polygon fill="#181818" points="302.99,172.27,302.5782,162.4298,300.7701,167.7898,295.41,165.9817,302.99,172.27" style="stroke:#181818;stroke-width:1.0;"/><text fill="#000000" font-family="sans-serif" font-size="13" lengthAdjust="spacing" textLength="41" x="268.5" y="98.0669">create</text></g><!--SRC=[TOun3i8m34Ltdy8Z3Eq162815yZ6xBX1YXGrA7750DoTDAG1YiZa_FVzlzqeDfw9BHud4JBUuWqU06IIH691zfJI37LqesI8-GsHhfjj6NcIEbrcmw96IsANoBMegpFtd48OiE_lglM33a8ILYBilUEsYrttWkK7Xs3-4FZGtscugxVyf2gixStndQsm7Dmem1C0]--></g></svg>