<?xml version="1.0" encoding="us-ascii" standalone="no"?><svg xmlns="http://www.w3.org/2000/svg" xmlns:xlink="http://www.w3.org/1999/xlink" contentStyleType="text/css" height="294px" preserveAspectRatio="none" style="width:543px;height:294px;background:#FFFFFF;" version="1.1" viewBox="0 0 543 294" width="543px" zoomAndPan="magnify"><defs/><g><!--class Human--><g id="elem_Human"><rect codeLine="12" fill="#F1F1F1" height="48" id="Human" rx="2.5" ry="2.5" style="stroke:#181818;stroke-width:0.5;" width="81" x="220.5" y="7"/><ellipse cx="235.5" cy="23" fill="#ADD1B2" rx="11" ry="11" style="stroke:#181818;stroke-width:1.0;"/><path d="M238.4688,28.6406 Q237.8906,28.9375 237.25,29.0781 Q236.6094,29.2344 235.9063,29.2344 Q233.4063,29.2344 232.0781,27.5938 Q230.7656,25.9375 230.7656,22.8125 Q230.7656,19.6875 232.0781,18.0313 Q233.4063,16.375 235.9063,16.375 Q236.6094,16.375 237.25,16.5313 Q237.9063,16.6875 238.4688,16.9844 L238.4688,19.7031 Q237.8438,19.125 237.25,18.8594 Q236.6563,18.5781 236.0313,18.5781 Q234.6875,18.5781 234,19.6563 Q233.3125,20.7188 233.3125,22.8125 Q233.3125,24.9063 234,25.9844 Q234.6875,27.0469 236.0313,27.0469 Q236.6563,27.0469 237.25,26.7813 Q237.8438,26.5 238.4688,25.9219 L238.4688,28.6406 Z " fill="#000000"/><text fill="#000000" font-family="sans-serif" font-size="14" lengthAdjust="spacing" textLength="49" x="249.5" y="27.8467">Human</text><line style="stroke:#181818;stroke-width:0.5;" x1="221.5" x2="300.5" y1="39" y2="39"/><line style="stroke:#181818;stroke-width:0.5;" x1="221.5" x2="300.5" y1="47" y2="47"/></g><!--class Comparator--><g id="elem_Comparator"><rect codeLine="4" fill="#F1F1F1" height="64.2969" id="Comparator" rx="2.5" ry="2.5" style="stroke:#181818;stroke-width:0.5;" width="210" x="156" y="115"/><ellipse cx="216.25" cy="131" fill="#B4A7E5" rx="11" ry="11" style="stroke:#181818;stroke-width:1.0;"/><path d="M212.1719,126.7656 L212.1719,124.6094 L219.5625,124.6094 L219.5625,126.7656 L217.0938,126.7656 L217.0938,134.8438 L219.5625,134.8438 L219.5625,137 L212.1719,137 L212.1719,134.8438 L214.6406,134.8438 L214.6406,126.7656 L212.1719,126.7656 Z " fill="#000000"/><text fill="#000000" font-family="sans-serif" font-size="14" font-style="italic" lengthAdjust="spacing" textLength="81" x="236.75" y="135.8467">Comparator</text><line style="stroke:#181818;stroke-width:0.5;" x1="157" x2="365" y1="147" y2="147"/><line style="stroke:#181818;stroke-width:0.5;" x1="157" x2="365" y1="155" y2="155"/><text fill="#000000" font-family="sans-serif" font-size="14" lengthAdjust="spacing" textLength="198" x="162" y="171.9951">int compare(Human, Human)</text></g><!--class AgeComparator--><g id="elem_AgeComparator"><rect codeLine="8" fill="#F1F1F1" height="48" id="AgeComparator" rx="2.5" ry="2.5" style="stroke:#181818;stroke-width:0.5;" width="140" x="7" y="239"/><ellipse cx="22" cy="255" fill="#ADD1B2" rx="11" ry="11" style="stroke:#181818;stroke-width:1.0;"/><path d="M24.9688,260.6406 Q24.3906,260.9375 23.75,261.0781 Q23.1094,261.2344 22.4063,261.2344 Q19.9063,261.2344 18.5781,259.5938 Q17.2656,257.9375 17.2656,254.8125 Q17.2656,251.6875 18.5781,250.0313 Q19.9063,248.375 22.4063,248.375 Q23.1094,248.375 23.75,248.5313 Q24.4063,248.6875 24.9688,248.9844 L24.9688,251.7031 Q24.3438,251.125 23.75,250.8594 Q23.1563,250.5781 22.5313,250.5781 Q21.1875,250.5781 20.5,251.6563 Q19.8125,252.7188 19.8125,254.8125 Q19.8125,256.9063 20.5,257.9844 Q21.1875,259.0469 22.5313,259.0469 Q23.1563,259.0469 23.75,258.7813 Q24.3438,258.5 24.9688,257.9219 L24.9688,260.6406 Z " fill="#000000"/><text fill="#000000" font-family="sans-serif" font-size="14" lengthAdjust="spacing" textLength="108" x="36" y="259.8467">AgeComparator</text><line style="stroke:#181818;stroke-width:0.5;" x1="8" x2="146" y1="271" y2="271"/><line style="stroke:#181818;stroke-width:0.5;" x1="8" x2="146" y1="279" y2="279"/></g><!--class HeightComparator--><g id="elem_HeightComparator"><rect codeLine="9" fill="#F1F1F1" height="48" id="HeightComparator" rx="2.5" ry="2.5" style="stroke:#181818;stroke-width:0.5;" width="158" x="182" y="239"/><ellipse cx="197" cy="255" fill="#ADD1B2" rx="11" ry="11" style="stroke:#181818;stroke-width:1.0;"/><path d="M199.9688,260.6406 Q199.3906,260.9375 198.75,261.0781 Q198.1094,261.2344 197.4063,261.2344 Q194.9063,261.2344 193.5781,259.5938 Q192.2656,257.9375 192.2656,254.8125 Q192.2656,251.6875 193.5781,250.0313 Q194.9063,248.375 197.4063,248.375 Q198.1094,248.375 198.75,248.5313 Q199.4063,248.6875 199.9688,248.9844 L199.9688,251.7031 Q199.3438,251.125 198.75,250.8594 Q198.1563,250.5781 197.5313,250.5781 Q196.1875,250.5781 195.5,251.6563 Q194.8125,252.7188 194.8125,254.8125 Q194.8125,256.9063 195.5,257.9844 Q196.1875,259.0469 197.5313,259.0469 Q198.1563,259.0469 198.75,258.7813 Q199.3438,258.5 199.9688,257.9219 L199.9688,260.6406 Z " fill="#000000"/><text fill="#000000" font-family="sans-serif" font-size="14" lengthAdjust="spacing" textLength="126" x="211" y="259.8467">HeightComparator</text><line style="stroke:#181818;stroke-width:0.5;" x1="183" x2="339" y1="271" y2="271"/><line style="stroke:#181818;stroke-width:0.5;" x1="183" x2="339" y1="279" y2="279"/></g><!--class WeightComparator--><g id="elem_WeightComparator"><rect codeLine="10" fill="#F1F1F1" height="48" id="WeightComparator" rx="2.5" ry="2.5" style="stroke:#181818;stroke-width:0.5;" width="161" x="375.5" y="239"/><ellipse cx="390.5" cy="255" fill="#ADD1B2" rx="11" ry="11" style="stroke:#181818;stroke-width:1.0;"/><path d="M393.4688,260.6406 Q392.8906,260.9375 392.25,261.0781 Q391.6094,261.2344 390.9063,261.2344 Q388.4063,261.2344 387.0781,259.5938 Q385.7656,257.9375 385.7656,254.8125 Q385.7656,251.6875 387.0781,250.0313 Q388.4063,248.375 390.9063,248.375 Q391.6094,248.375 392.25,248.5313 Q392.9063,248.6875 393.4688,248.9844 L393.4688,251.7031 Q392.8438,251.125 392.25,250.8594 Q391.6563,250.5781 391.0313,250.5781 Q389.6875,250.5781 389,251.6563 Q388.3125,252.7188 388.3125,254.8125 Q388.3125,256.9063 389,257.9844 Q389.6875,259.0469 391.0313,259.0469 Q391.6563,259.0469 392.25,258.7813 Q392.8438,258.5 393.4688,257.9219 L393.4688,260.6406 Z " fill="#000000"/><text fill="#000000" font-family="sans-serif" font-size="14" lengthAdjust="spacing" textLength="129" x="404.5" y="259.8467">WeightComparator</text><line style="stroke:#181818;stroke-width:0.5;" x1="376.5" x2="535.5" y1="271" y2="271"/><line style="stroke:#181818;stroke-width:0.5;" x1="376.5" x2="535.5" y1="279" y2="279"/></g><!--reverse link Human to Comparator--><g id="link_Human_Comparator"><path codeLine="2" d="M261,67.07 C261,84.25 261,95.88 261,114.75 " fill="none" id="Human-backto-Comparator" style="stroke:#181818;stroke-width:1.0;"/><polygon fill="#181818" points="261,55.07,257,61.07,261,67.07,265,61.07,261,55.07" style="stroke:#181818;stroke-width:1.0;"/></g><!--reverse link Comparator to AgeComparator--><g id="link_Comparator_AgeComparator"><path d="M195.4203,188.6325 C164.9903,207.4925 142.13,221.65 114.37,238.84 " fill="none" id="Comparator-backto-AgeComparator" style="stroke:#181818;stroke-width:1.0;stroke-dasharray:7.0,7.0;"/><polygon fill="none" points="210.72,179.15,192.2594,183.5326,198.5811,193.7324,210.72,179.15" style="stroke:#181818;stroke-width:1.0;"/></g><!--reverse link Comparator to HeightComparator--><g id="link_Comparator_HeightComparator"><path d="M261,197.15 C261,216.01 261,221.65 261,238.84 " fill="none" id="Comparator-backto-HeightComparator" style="stroke:#181818;stroke-width:1.0;stroke-dasharray:7.0,7.0;"/><polygon fill="none" points="261,179.15,255,197.15,267,197.15,261,179.15" style="stroke:#181818;stroke-width:1.0;"/></g><!--reverse link Comparator to WeightComparator--><g id="link_Comparator_WeightComparator"><path d="M329.569,188.0852 C361.929,207.0052 387.09,221.71 416.6,238.96 " fill="none" id="Comparator-backto-WeightComparator" style="stroke:#181818;stroke-width:1.0;stroke-dasharray:7.0,7.0;"/><polygon fill="none" points="314.03,179,326.5406,193.2649,332.5974,182.9055,314.03,179" style="stroke:#181818;stroke-width:1.0;"/></g><!--SRC=[yoZDJSnJqDBLLN3Epor8B4eioI_YuihCAqajIajCJaKILQZcKW02e9H2CbWmLSC3f5b70KnfSjLoSINd91ONApYcfo9foymjo4dDJSqhAKQs0gBI8pKpFQE4ICNXn2c66GtsM3NGLG00]--></g></svg>